<?xml version="1.0" encoding="UTF-8" standalone="no"?>
<svg
   xmlns:dc="http://purl.org/dc/elements/1.1/"
   xmlns:cc="http://creativecommons.org/ns#"
   xmlns:rdf="http://www.w3.org/1999/02/22-rdf-syntax-ns#"
   xmlns:svg="http://www.w3.org/2000/svg"
   xmlns="http://www.w3.org/2000/svg"
   xmlns:sodipodi="http://sodipodi.sourceforge.net/DTD/sodipodi-0.dtd"
   xmlns:inkscape="http://www.inkscape.org/namespaces/inkscape"
   version="1.0"
   x="0px"
   y="0px"
   viewBox="0 0 100 125"
   enable-background="new 0 0 100 100"
   xml:space="preserve"
   id="svg56"
   sodipodi:docname="noun_attributes_339028.svg"
   inkscape:version="0.92.2 (5c3e80d, 2017-08-06)"><metadata
     id="metadata62"><rdf:RDF><cc:Work
         rdf:about=""><dc:format>image/svg+xml</dc:format><dc:type
           rdf:resource="http://purl.org/dc/dcmitype/StillImage" /></cc:Work></rdf:RDF></metadata><defs
     id="defs60" /><sodipodi:namedview
     pagecolor="#ffffff"
     bordercolor="#666666"
     borderopacity="1"
     objecttolerance="10"
     gridtolerance="10"
     guidetolerance="10"
     inkscape:pageopacity="0"
     inkscape:pageshadow="2"
     inkscape:window-width="1920"
     inkscape:window-height="1001"
     id="namedview58"
     showgrid="false"
     inkscape:zoom="2.6700352"
     inkscape:cx="41.79204"
     inkscape:cy="143.45164"
     inkscape:window-x="-9"
     inkscape:window-y="-9"
     inkscape:window-maximized="1"
     inkscape:current-layer="svg56" /><g
     id="g50"><path
       d="M65.3532791,68.8150024c-4.0486984,3.8945007-9.5428009,6.2962952-15.5905991,6.2962952   c-6.1309013,0-11.6945-2.4665985-15.7583008-6.4561996c0.0008011,0.1584015-0.0056,0.3021011-0.0014992,0.468399   l0.0032997,2.2322998c4.2640991,3.5882034,9.7608986,5.7555008,15.7565002,5.7555008   c5.9161987,0,11.3493996-2.1072006,15.5890961-5.6103973l0.0027008-2.3538971   C65.3572769,69.028801,65.3520813,68.9290009,65.3532791,68.8150024z"
       id="path2" /><path
       d="M40.1864815,61.2798004c0.6875191-0.3227997,1.3526001-0.6352997,1.9540977-0.9594994   c0.4225006-0.2266998,0.7658005-0.4976006,1.0629997-0.7938995c-0.5318985-0.4533005-0.84058-0.7951012-0.8783989-0.8379021   c-0.3671799-0.4125977-0.330101-1.0444984,0.0830002-1.4115982c0.4110985-0.3663025,1.0438995-0.3296013,1.4101982,0.0814972   c0.0053024,0.0060005,0.1341019,0.1449013,0.3571014,0.3522034c0.1827011-0.9114037,0.0755196-1.9782028-0.3571014-3.2140007   c-0.7812996-2.2144012-1.1651001-3.8013-0.9550972-5.8428001c0.322197-3.1802025,3.4071999-5.8672028,6.7362976-5.8672028h0.160202   c3.3290977,0,6.4160004,2.6870003,6.7392197,5.866703c0.2070808,2.0492973-0.1758194,3.6343002-0.9551201,5.8428001   c-0.4345016,1.2324982-0.5433998,2.2971992-0.3627014,3.2075005c0.1323013-0.1252022,0.2652016-0.2438011,0.3969002-0.3784027   c0.3876991-0.3936005,1.0205002-0.4018974,1.4141006-0.0155983c0.3945007,0.3862,0.4014015,1.019001,0.0155983,1.4139977   c-0.2798996,0.2863007-0.5626984,0.5548019-0.8484001,0.8057022c0.2965012,0.2943993,0.6385002,0.5640984,1.0594025,0.7900009   c0.6035004,0.3251991,1.2695007,0.6386986,1.9570007,0.9614983c2.1083984,0.9906998,4.2889977,2.0150986,5.4140015,3.7461014   c0.6459961,0.9938965,0.781395,2.2017975,0.7634964,3.7881012c0.6747971-0.6490021,1.3106003-1.3377991,1.9005966-2.0658035   c-0.1310959-0.9587021-0.4081955-1.9220963-0.9872971-2.8126984c-1.4355011-2.2084999-3.9883003-3.4076996-6.2402-4.4658012   c-0.6533775-0.3065987-1.2851982-0.6030006-1.8603783-0.9131012c-0.9756203-0.5238991-1.4746208-1.3016968-0.735321-3.3959999   c0.7108994-2.0165977,1.3270988-4.0472984,1.0586014-6.7098999c-0.4307022-4.2265968-4.3467026-7.6651001-8.7294998-7.6651001   h-0.160202c-4.3827972,0-8.2968979,3.4385033-8.7265778,7.6641006c-0.2724228,2.653801,0.3457794,4.6884995,1.0585785,6.7089996   c0.7373009,2.1049004,0.2647018,2.8608017-0.7373009,3.3989029c-0.5732002,0.3085976-1.204998,0.6044998-1.857399,0.9105988   c-2.2538795,1.0586014-4.8086014,2.2579002-6.2430992,4.466301c-0.5443001,0.8358002-0.8265991,1.733696-0.9682999,2.6279984   c0.5834007,0.7353973,1.2098007,1.4347,1.8788986,2.0915985c-0.0081978-1.4950943,0.1356201-2.6617966,0.7661018-3.6287003   C35.8944817,63.294899,38.0761795,62.2705002,40.1864815,61.2798004z"
       id="path4" /><path
       d="M67.2538757,66.7491989c-0.5899963,0.7280045-1.2257996,1.4168015-1.9005966,2.0658035   c-0.0011978,0.1139984,0.0039978,0.2137985,0.0011978,0.3320007l-0.0027008,2.3538971   c0.7027054-0.5805969,1.3683014-1.203804,2.0021057-1.8578033l0.0005951-0.471199   C67.3725815,68.4014969,67.3670807,67.5770035,67.2538757,66.7491989z"
       id="path6" /><path
       d="M34.0061798,71.3557968l-0.0032997-2.2322998c-0.0041008-0.1662979,0.0023003-0.3099976,0.0014992-0.468399   c-0.6690979-0.6568985-1.2954979-1.3562012-1.8788986-2.0915985c-0.14048,0.8869019-0.1424809,1.7702026-0.1226006,2.5858994   l0.0004997,0.3175049C32.6358795,70.1324997,33.3032799,70.7642975,34.0061798,71.3557968z"
       id="path8" /><path
       d="M55.181179,57.7036018c-1.7670975,1.6700974-3.5956001,2.5067978-5.5298004,2.4667969   c-2.6054993-0.0556984-4.678997-1.7196999-5.4758987-2.4597969c-0.1411018,0.7042999-0.464901,1.3102989-0.9719009,1.8157997   c1.1839027,1.0090981,3.4780998,2.573597,6.3843002,2.6429977c0.0674019,0.0019989,0.1348,0.0025024,0.2021217,0.0025024   c2.2326775,0,4.3704796-0.8875008,6.3693771-2.642601C55.6476784,59.0211983,55.3217812,58.4118996,55.181179,57.7036018z"
       id="path10" /><path
       d="M56.9921799,57.3096008c-0.3936005-0.3862991-1.0264015-0.3780022-1.4141006,0.0155983   c-0.1316986,0.1346016-0.2645988,0.2532005-0.3969002,0.3784027c0.1406021,0.7082977,0.4664993,1.3175964,0.978199,1.8256989   c0.2857018-0.2509003,0.5685005-0.5194016,0.8484001-0.8057022C57.3935814,58.3286018,57.3866806,57.6958008,56.9921799,57.3096008   z"
       id="path12" /><path
       d="M44.1754799,57.7106018c-0.2229996-0.2073021-0.351799-0.3462029-0.3571014-0.3522034   c-0.3662987-0.4110985-0.9990997-0.4477997-1.4101982-0.0814972c-0.4131012,0.3670998-0.4501801,0.9990005-0.0830002,1.4115982   c0.0378189,0.0428009,0.3465004,0.3846016,0.8783989,0.8379021C43.7105789,59.0209007,44.0343781,58.4149017,44.1754799,57.7106018   z"
       id="path14" /><path
       d="M51.7089996,51.9804993c0-0.5522995-0.447319-1-1-1h-1.4756203v-2.7123985c0-0.5522995-0.4473-1-1-1s-1,0.4477005-1,1   v3.7123985c0,0.5522003,0.4473,1,1,1h2.4756203C51.2616806,52.9804993,51.7089996,52.5326996,51.7089996,51.9804993z"
       id="path16" /><path
       d="M25.2509995,52.5971985c0,6.5323029,2.573,12.471199,6.7523804,16.8697052l-0.0004997-0.3175049   c-0.0198803-0.8156967-0.0178795-1.6989975,0.1226006-2.5858994c-3.0475998-3.841301-4.8744812-8.6930008-4.8744812-13.966301   c0-2.3452988,0.3615818-4.607399,1.03018-6.7348976h-2.0815983C25.58638,48.0037994,25.2509995,50.2613983,25.2509995,52.5971985z"
       id="path18" /><path
       d="M72.2743759,52.5971985c0,5.3580017-1.8840942,10.2823029-5.0205002,14.1520004   c0.113205,0.8278046,0.1187057,1.652298,0.1006012,2.422699l-0.0005951,0.471199   c4.2789001-4.4152985,6.9204941-10.4262962,6.9204941-17.0458984c0-2.6772995-0.4375992-5.2528992-1.2347946-7.6665001h-2.1113052   C71.7982788,47.3246994,72.2743759,49.9062996,72.2743759,52.5971985z"
       id="path20" /><path
       d="M35.247879,32.8623009h0.3087006c0.5527992,0,1,0.4477997,1,1v0.5215988   c1.8854218-1.3704987,3.989502-2.4554005,6.2509995-3.1919003c-0.1876984-0.6385002-0.2928009-1.3113003-0.3023987-2.0075989   C39.8681793,30.0035,37.4223785,31.2590008,35.247879,32.8623009z"
       id="path22" /><path
       d="M57.4867783,29.3414001c-0.0239983,0.6931-0.1350975,1.3642006-0.3354988,1.9974995   c3.0367203,1.0584011,5.7775002,2.7489986,8.0669975,4.9148998l0.9956055-1.8099976   C63.7181778,32.1803017,60.7528801,30.4290009,57.4867783,29.3414001z"
       id="path24" /><path
       d="M50,34.5811005c-2.4832191,0-4.5854187-1.6556015-5.2662201-3.9204006   c-0.6531982,0.1497002-1.2958984,0.3260994-1.9262009,0.5312996C43.7220001,34.3022003,46.59758,36.5811005,50,36.5811005   c3.3490791,0,6.1908798-2.2066994,7.1512794-5.2422009c-0.6272812-0.2185993-1.2658005-0.4125996-1.9168015-0.5757999   C54.5217781,32.9752007,52.4455795,34.5811005,50,34.5811005z"
       id="path26" /><path
       d="M50,23.5811005c2.9267807,0,5.3206787,2.3003998,5.4841805,5.1873989   c0.6791,0.1631012,1.3466988,0.3544998,2.0025978,0.5729008C57.4897804,29.2542992,57.5,29.1688995,57.5,29.0811005   c0-4.1358013-3.3643188-7.5-7.5-7.5c-4.1357193,0-7.5,3.3641987-7.5,7.5c0,0.0348988,0.0047798,0.0685997,0.0051804,0.1033001   c0.660099-0.2049999,1.3339005-0.3777008,2.0163002-0.5270004C44.7391815,25.8225994,47.1107788,23.5811005,50,23.5811005z"
       id="path28" /><path
       d="M55.4841805,28.7684994C55.490078,28.8726006,55.5,28.9755001,55.5,29.0811005   c0,0.5867004-0.0945206,1.1513996-0.265522,1.6819992c0.651001,0.1632004,1.2895203,0.3572006,1.9168015,0.5757999   c0.2004013-0.6332989,0.3115005-1.3043995,0.3354988-1.9974995C56.8308792,29.1229992,56.1632805,28.9316006,55.4841805,28.7684994   z"
       id="path30" /><path
       d="M44.5,29.0811005c0-0.1431007,0.0106812-0.2833996,0.0214806-0.4237003   c-0.6823997,0.1492996-1.3562012,0.3220005-2.0163002,0.5270004c0.0095978,0.6962986,0.1147003,1.3690987,0.3023987,2.0075989   c0.6303024-0.2052002,1.2730026-0.3815994,1.9262009-0.5312996C44.5832787,30.1599007,44.5,29.6301994,44.5,29.0811005z"
       id="path32" /><path
       d="M25.5565796,43.8623009v-9h7.3139992c0.7498016-0.7144012,1.5421028-1.384201,2.3773003-2H24.5565796   c-0.5527,0-1,0.4477997-1,1v11c0,0.5522995,0.4473,1,1,1h1.6430016c0.194418-0.6791,0.4158001-1.346302,0.6660995-2H25.5565796z"
       id="path34" /><path
       d="M34.5565796,43.8623009h-5.5411987c-0.275301,0.6515999-0.5202007,1.3190002-0.7342014,2h7.2754002   c0.5527992,0,1-0.4477005,1-1V34.3838997c-0.6972008,0.5069008-1.3660011,1.0503006-2,1.632V43.8623009z"
       id="path36" /><path
       d="M35.5565796,32.8623009H35.247879c-0.8351974,0.615799-1.6274986,1.2855988-2.3773003,2h1.6860008v1.1535988   c0.6339989-0.5816994,1.3027992-1.1250992,2-1.632v-0.5215988C36.5565796,33.3101006,36.1093788,32.8623009,35.5565796,32.8623009z   "
       id="path38" /><path
       d="M26.8656807,43.8623009c-0.2502995,0.653698-0.4716816,1.3209-0.6660995,2h2.0815983   c0.2140007-0.6809998,0.4589005-1.3484001,0.7342014-2H26.8656807z"
       id="path40" /><path
       d="M63.8280792,42.9306984l2.8435974-5.1695976c-0.4610977-0.5247993-0.9460983-1.027401-1.4533997-1.5073013   L61.2606812,43.4487c-0.1709023,0.3096008-0.1650009,0.6865997,0.0156975,0.990799   c0.1797028,0.3045998,0.5068016,0.4911995,0.860302,0.4911995h8.7915955c-0.2481003-0.6828003-0.528595-1.3498001-0.8391953-2   H63.8280792z"
       id="path42" /><path
       d="M76.625,43.4487l-6.8057175-12.3745003C69.6435776,30.7549,69.307579,30.5562,68.9433823,30.5562   c-0.3643036,0-0.7002029,0.1987-0.8759995,0.5179996l-1.8535004,3.3696022   c0.5137939,0.4658966,1.0043945,0.9566994,1.4771957,1.4640999l1.2523041-2.2765999l5.1141968,9.2993965H72.283783   c0.2810974,0.6522026,0.5312958,1.3202019,0.7557983,2h2.7094193c0.3534775,0,0.6806793-0.1865997,0.8603821-0.4911995   C76.7900009,44.1352997,76.7958755,43.7588005,76.625,43.4487z"
       id="path44" /><path
       d="M66.6716766,37.7611008l1.0194016-1.853199c-0.4728012-0.5074005-0.9634018-0.9982033-1.4771957-1.4640999   l-0.9956055,1.8099976C65.7255783,36.7336998,66.2105789,37.2363014,66.6716766,37.7611008z"
       id="path46" /><path
       d="M70.0890808,42.9306984c0.3106003,0.6501999,0.591095,1.3171997,0.8391953,2h2.1113052   c-0.2245026-0.6797981-0.4747009-1.3477974-0.7557983-2H70.0890808z"
       id="path48" /></g></svg>