<?xml version="1.0" encoding="UTF-8" standalone="no"?>
<svg
   xmlns:dc="http://purl.org/dc/elements/1.1/"
   xmlns:cc="http://creativecommons.org/ns#"
   xmlns:rdf="http://www.w3.org/1999/02/22-rdf-syntax-ns#"
   xmlns:svg="http://www.w3.org/2000/svg"
   xmlns="http://www.w3.org/2000/svg"
   xmlns:sodipodi="http://sodipodi.sourceforge.net/DTD/sodipodi-0.dtd"
   xmlns:inkscape="http://www.inkscape.org/namespaces/inkscape"
   version="1.0"
   x="0px"
   y="0px"
   viewBox="0 0 100 125"
   enable-background="new 0 0 100 100"
   xml:space="preserve"
   id="svg1270"
   sodipodi:docname="noun_interpreter_338655.svg"
   inkscape:version="0.92.2 (5c3e80d, 2017-08-06)"><metadata
     id="metadata1276"><rdf:RDF><cc:Work
         rdf:about=""><dc:format>image/svg+xml</dc:format><dc:type
           rdf:resource="http://purl.org/dc/dcmitype/StillImage" /></cc:Work></rdf:RDF></metadata><defs
     id="defs1274" /><sodipodi:namedview
     pagecolor="#ffffff"
     bordercolor="#666666"
     borderopacity="1"
     objecttolerance="10"
     gridtolerance="10"
     guidetolerance="10"
     inkscape:pageopacity="0"
     inkscape:pageshadow="2"
     inkscape:window-width="1920"
     inkscape:window-height="1001"
     id="namedview1272"
     showgrid="false"
     inkscape:zoom="1.888"
     inkscape:cx="50"
     inkscape:cy="-43.432203"
     inkscape:window-x="-9"
     inkscape:window-y="-9"
     inkscape:window-maximized="1"
     inkscape:current-layer="svg1270" /><g
     id="g1264"><g
       id="g1262"><path
         d="M57.6273918,58.3144989c0.1973,0.252903,0.4921989,0.3852005,0.789608,0.3852005    c0.2147903,0,0.431591-0.0687981,0.6142921-0.2108994c0.4354973-0.339901,0.5135994-0.9678001,0.1742973-1.403801    c-0.214798-0.2753983-0.4448967-0.539299-0.6857986-0.7926979C64.7247925,53.1618996,69,46.7448997,69,39.3334999    c0-10.4766006-8.5234108-19-19-19c-10.4766083,0-19,8.5233994-19,19c0,7.4110985,4.2750015,13.8278999,10.4795914,16.9584999    c-0.2457008,0.2584-0.4791985,0.5280991-0.6973991,0.8091011c-0.3388023,0.4360008-0.2601929,1.0643997,0.1763,1.4027977    c0.1820984,0.1421013,0.3983994,0.2105026,0.6128006,0.2105026c0.2977982,0,0.5932999-0.1329002,0.7899971-0.3868027    c0.3307114-0.4251976,0.7068024-0.8167,1.1109009-1.1739998C45.5114899,57.9033012,47.7038918,58.3334999,50,58.3334999    c2.2960014,0,4.4882927-0.4300995,6.5274925-1.1797981C56.9271927,57.5071983,57.2997894,57.8936005,57.6273918,58.3144989z     M33,39.3334999c0-9.3740005,7.6259995-17,17-17s17,7.6259995,17,17s-7.6259995,17-17,17S33,48.7075005,33,39.3334999z"
         id="path1244" /><path
         d="M67.5400009,64.278801c-1.4668121-1.483902-3.4829102-2.2363014-5.9931107-2.2363014    c-0.0808907,0-0.149601,0.0135002-0.2290001,0.0152016c-0.0625-0.4356003-0.1429977-0.8682022-0.2598-1.2910995    c-0.1469994-0.5321999-0.6963005-0.8496017-1.2294998-0.6982002c-0.5326996,0.1464005-0.8451996,0.697197-0.6982002,1.2294998    c0.0909996,0.3308983,0.1557007,0.6693001,0.2060013,1.0102997c-5.8153,1.3880997-6.3281021,8.2070961-6.3281021,10.4642982    c0,0.5278015,0.410202,0.9643021,0.9365005,0.9980011l1.8027992,0.1147995l0.0356026,4.3695984    c0.0043983,0.5493011,0.4511986,0.9916992,1,0.9916992c0.0023994,0,0.0053978,0,0.0083008,0    c0.5522995-0.0043945,0.9960976-0.4561005,0.9916992-1.0083008l-0.0144997-1.7697983    c2.107399-0.0955963,3.4539986-0.4911957,3.5183983-0.510498c0.5293007-0.158699,0.8296013-0.716301,0.6709099-1.2451019    c-0.1582108-0.5292969-0.7143097-0.8246994-1.2451096-0.6708984c-0.0130997,0.0042038-1.1446991,0.3354034-2.960598,0.4247971    l-0.0125999-1.5287933c-0.004303-0.5244064-0.413002-0.956604-0.9365005-0.9898071l-1.7680016-0.1122971    c0.1665001-2.9095993,1.2334023-7.793396,6.5116997-7.793396c1.9834023,0,3.4785004,0.5370941,4.5702972,1.6420975    c2.4932022,2.5228958,2.4341049,7.5653992,2.3906021,11.2470016c-0.0054016,0.461998-0.0106964,0.9029007-0.0106964,1.3149948    c0,0.5522003,0.4477005,1,1,1c0.5522003,0,1-0.4477997,1-1c0-0.4048004,0.0049057-0.8373947,0.0102005-1.2910004    C70.555191,72.9208984,70.6200943,67.3955002,67.5400009,64.278801z"
         id="path1246" /><path
         d="M49.3656921,35.6815987c-0.5522003,0-1,0.4477997-1,1v5.6094017c0,0.5522995,0.4477997,1,1,1h3.3653069    c0.5521927,0,1-0.4477005,1-1c0-0.5522003-0.4478073-1-1-1h-2.3653069v-4.6094017    C50.3656921,36.1293983,49.9179993,35.6815987,49.3656921,35.6815987z"
         id="path1248" /><path
         d="M40.6635933,62.3082008c0.0494995-0.3353996,0.1132965-0.668602,0.2025986-0.9952011    c0.1455002-0.5326996-0.1683998-1.0825005-0.7015991-1.2280006c-0.5318031-0.1445999-1.0820999,0.1693993-1.2280998,0.7015991    c-0.1137009,0.4168015-0.193203,0.8426018-0.2549019,1.2709999c-0.0792007-0.0016975-0.1477013-0.0150986-0.2285004-0.0150986    c-2.5102005,0-4.5262985,0.7523994-5.9930916,2.2363014c-3.0801067,3.1166992-3.0152073,8.6420975-2.967308,12.676796    c0.0053082,0.4536057,0.0102005,0.8862,0.0102005,1.2910004c0,0.5522003,0.4477997,1,1,1c0.5522995,0,1-0.4477997,1-1    c0-0.4120941-0.0053005-0.8529968-0.0107002-1.3149948c-0.043499-3.6816025-0.1026001-8.7241058,2.3906021-11.2470016    c1.0917969-1.1050034,2.5868988-1.6420975,4.5702972-1.6420975c5.2783012,0,6.3451996,4.8837967,6.5116997,7.793396    l-1.7679977,0.1122971c-0.5235023,0.0332031-0.9322014,0.4654007-0.9365005,0.9898071l-0.0125999,1.5294952    c-1.7581024-0.0863953-2.9230003-0.4146957-2.9616013-0.425499c-0.528801-0.1596985-1.0848999,0.1416016-1.244091,0.6704025    c-0.1587067,0.5292969,0.1415901,1.0868988,0.6703911,1.2455978c0.0643997,0.0193024,1.4109993,0.4149017,3.5189018,0.510498    l-0.0144997,1.7697983c-0.0044022,0.5522003,0.4394989,1.0039062,0.9916992,1.0083008c0.0028992,0,0.0058975,0,0.0083008,0    c0.5487976,0,0.9955978-0.4423981,1-0.9916992l0.0355988-4.3695984l1.8027992-0.1147995    c0.5262985-0.033699,0.9365005-0.4701996,0.9365005-0.9980011C46.9916916,70.5152969,46.4788895,63.6963005,40.6635933,62.3082008    z"
         id="path1250" /><circle
         cx="39.4858932"
         cy="68.7612991"
         r="1.25"
         id="circle1252" /><circle
         cx="45.5324898"
         cy="36.8814011"
         r="1.25"
         id="circle1254" /><circle
         cx="54.2537918"
         cy="36.8814011"
         r="1.25"
         id="circle1256" /><path
         d="M64.4501877,42.0155983v-2.794899c0-2.0277977-1.6498985-3.6777-3.6776962-3.6777h-0.8644905    c-0.5332108-4.9256992-4.7140007-8.7740002-9.77911-8.7740002c-5.0650978,0-9.2458,3.8483009-9.7790985,8.7740002h-0.8640022    c-2.0277901,0-3.6777,1.6499023-3.6777,3.6777v2.794899c0,2.0279007,1.64991,3.677803,3.6777,3.677803h1.8062096    c0.5521927,0,1-0.4477997,1-1v-4.8437996c0-0.004303-0.0024071-0.0078011-0.0024071-0.0121002v-3.2291031    c0-4.3227997,3.5165977-7.8393993,7.8392982-7.8393993c4.3227997,0,7.8394012,3.5165997,7.8394012,7.8393993v3.2291031    c-0.000103,0.0042992-0.0025024,0.0077972-0.0025024,0.0121002v4.8437996c0,0.001297,0.0008011,0.0024986,0.0008011,0.0037994    c-0.0042992,1.0662003-0.3084984,1.8814011-0.9319,2.4883003c-0.7975006,0.775898-1.953598,1.0548973-2.7304001,1.1553993    c-0.3581009-1.1544991-1.4234009-2.0010986-2.6944008-2.0010986h-2.516098c-1.5625,0-2.8334999,1.2709999-2.8334999,2.8330994    v0.4466972c0,1.5625,1.2709999,2.8334999,2.8334999,2.8334999h2.516098c1.3085022,0,2.4017029-0.8958969,2.7261086-2.1033974    c1.0581932-0.1114998,2.803894-0.4845009,4.0814934-1.719799c0.8045082-0.777401,1.2880974-1.7664032,1.4655991-2.9365005    h0.8894005C62.8002892,45.6934013,64.4501877,44.043499,64.4501877,42.0155983z M39.4857903,43.6934013    c-0.9253006,0-1.6777-0.7525024-1.6777-1.677803v-2.794899c0-0.9253006,0.7523994-1.6777,1.6777-1.6777h0.8038025v2.2954025    c0,0.0042992,0.0023003,0.0077972,0.0024071,0.0120964v3.8429031H39.4857903z M52.4433899,49.6195984    c0,0.4595032-0.3740997,0.8334999-0.8334999,0.8334999h-2.516098c-0.4594994,0-0.8334999-0.3739967-0.8334999-0.8334999    v-0.4466972c0-0.4594994,0.3740005-0.8330994,0.8334999-0.8330994h2.516098c0.4594002,0,0.8334999,0.3736,0.8334999,0.8330994    V49.6195984z M62.4501915,39.2206993v2.794899c0,0.9253006-0.7523994,1.677803-1.6777,1.677803h-0.8067017v-3.8429031    c0.000103-0.0042992,0.0025024-0.0077972,0.0025024-0.0120964v-2.2954025h0.8041992    C61.6977921,37.5429993,62.4501915,38.2953987,62.4501915,39.2206993z"
         id="path1258" /><circle
         cx="60.5140915"
         cy="68.7612991"
         r="1.25"
         id="circle1260" /></g></g></svg>