<?xml version="1.0" encoding="UTF-8" standalone="no"?>
<svg
   xmlns:dc="http://purl.org/dc/elements/1.1/"
   xmlns:cc="http://creativecommons.org/ns#"
   xmlns:rdf="http://www.w3.org/1999/02/22-rdf-syntax-ns#"
   xmlns:svg="http://www.w3.org/2000/svg"
   xmlns="http://www.w3.org/2000/svg"
   xmlns:sodipodi="http://sodipodi.sourceforge.net/DTD/sodipodi-0.dtd"
   xmlns:inkscape="http://www.inkscape.org/namespaces/inkscape"
   version="1.0"
   x="0px"
   y="0px"
   viewBox="0 0 100 125"
   enable-background="new 0 0 100 100"
   xml:space="preserve"
   id="svg2516"
   sodipodi:docname="noun_manager_342962.svg"
   inkscape:version="0.92.2 (5c3e80d, 2017-08-06)"><metadata
     id="metadata2522"><rdf:RDF><cc:Work
         rdf:about=""><dc:format>image/svg+xml</dc:format><dc:type
           rdf:resource="http://purl.org/dc/dcmitype/StillImage" /></cc:Work></rdf:RDF></metadata><defs
     id="defs2520" /><sodipodi:namedview
     pagecolor="#ffffff"
     bordercolor="#666666"
     borderopacity="1"
     objecttolerance="10"
     gridtolerance="10"
     guidetolerance="10"
     inkscape:pageopacity="0"
     inkscape:pageshadow="2"
     inkscape:window-width="849"
     inkscape:window-height="480"
     id="namedview2518"
     showgrid="false"
     inkscape:zoom="1.888"
     inkscape:cx="50"
     inkscape:cy="62.5"
     inkscape:window-x="0"
     inkscape:window-y="0"
     inkscape:window-maximized="0"
     inkscape:current-layer="svg2516" /><g
     id="g2510"><g
       id="g2508"><path
         d="M71.8671875,57.1508789c-0.0429688-8.5776367-10.7216797-13.769043-11.1376953-13.9663086    c-1.3759766-0.7294922-2.0878906-1.8041992-1.0986328-4.6787109c0.8896484-2.5600586,1.6582031-5.1347656,1.2988281-8.4702148    c-0.5595703-5.2504883-5.4355469-9.5024414-10.8837891-9.5024414c-0.03125,0-0.0664063,0-0.0996094,0    c-5.4472656,0-10.3242188,4.2524414-10.8837891,9.5014648c-0.359375,3.3383789,0.4101563,5.9121094,1.2988281,8.46875    c0.9902344,2.8764648,0.2773438,3.9516602-1.0595703,4.6616211c-0.4541016,0.2167969-11.1337891,5.4082031-11.1757813,13.9858398    c-0.0400391,7.9609375,0,20.7241211,0,20.8520508C28.1279297,78.5541992,28.5751953,79,29.1259766,79h41.7617188    c0.5517578,0,0.9990234-0.4467773,1-0.9985352C71.8876953,77.8735352,71.9072266,65.1108398,71.8671875,57.1508789z     M41.0507813,30.2475586c0.4472656-4.1904297,4.515625-7.7143555,8.8964844-7.7143555c0.015625,0,0.0302734,0.0004883,0.0449219,0    c0.0019531,0,0.0058594,0,0.0078125,0c0.015625-0.0019531,0.0292969,0.0004883,0.0449219,0    c4.3798828,0,8.4492188,3.5239258,8.8964844,7.715332c0.2861328,2.6621094-0.2011719,4.7250977-1.2001953,7.6035156    c-0.2646484,0.7666016-0.8515625,2.4887695-0.4033203,4.1777344c-2.3642578,2.2519531-4.8242188,3.3774414-7.4082031,3.3041992    c-3.5195313-0.0947266-6.2822266-2.40625-7.2587891-3.340332c0.4248047-1.6743164-0.15625-3.3803711-0.4199219-4.144043    C41.2519531,34.9746094,40.7646484,32.9116211,41.0507813,30.2475586z M69.8886719,77h-39.765625    c-0.0078125-3.168457-0.0302734-13.1850586,0.0029297-19.8393555c0.0351563-7.3193359,9.9375-12.1425781,10.0751953-12.2094727    c0.6328125-0.3354492,1.1123047-0.7236328,1.4892578-1.1391602c1.4072266,1.2558594,4.359375,3.4106445,8.1660156,3.5205078    c0.1005859,0.0029297,0.2021484,0.0043945,0.3027344,0.0043945c2.859375,0,5.6025391-1.184082,8.1757813-3.5029297    c0.3798828,0.4135742,0.8613281,0.8007813,1.4951172,1.1367188c0.1005859,0.0473633,10.0009766,4.8535156,10.0371094,12.1899414    C69.9003906,63.8139648,69.8925781,73.8291016,69.8886719,77z"
         id="path2502" /><path
         d="M48.9960938,36l4,0.0146484c0.0019531,0,0.0029297,0,0.0039063,0c0.5507813,0,0.9980469-0.4453125,1-0.9960938    c0.0019531-0.5527344-0.4443359-1.0019531-0.9960938-1.0039063L50,34.003418V29c0-0.5522461-0.4472656-1-1-1s-1,0.4477539-1,1v6    C48,35.5507813,48.4453125,35.9980469,48.9960938,36z"
         id="path2504" /><path
         d="M63,65h-3.0253906C59.9804688,64.9570313,60,64.9194336,60,64.875V62c0-0.5522461-0.4472656-1-1-1h-8v-2h5    c0.5527344,0,1-0.4477539,1-1v-5c0-0.5522461-0.4472656-1-1-1H44c-0.5527344,0-1,0.4477539-1,1v5c0,0.5522461,0.4472656,1,1,1h5v2    h-8c-0.5527344,0-1,0.4477539-1,1v2.875c0,0.0444336,0.0195313,0.0820313,0.0253906,0.125H37c-0.5527344,0-1,0.4477539-1,1v5    c0,0.5522461,0.4472656,1,1,1h10c0.5527344,0,1-0.4477539,1-1v-5c0-0.5522461-0.4472656-1-1-1h-5.0253906    C41.9804688,64.9570313,42,64.9194336,42,64.875V63h16v1.875c0,0.0444336,0.0195313,0.0820313,0.0253906,0.125H53    c-0.5527344,0-1,0.4477539-1,1v5c0,0.5522461,0.4472656,1,1,1h10c0.5527344,0,1-0.4477539,1-1v-5    C64,65.4477539,63.5527344,65,63,65z M45,54h10v3H45V54z M46,70h-8v-3h8V70z M62,70h-8v-3h8V70z"
         id="path2506" /></g></g></svg>