<?xml version="1.0" encoding="UTF-8" standalone="no"?>
<svg
   xmlns:dc="http://purl.org/dc/elements/1.1/"
   xmlns:cc="http://creativecommons.org/ns#"
   xmlns:rdf="http://www.w3.org/1999/02/22-rdf-syntax-ns#"
   xmlns:svg="http://www.w3.org/2000/svg"
   xmlns="http://www.w3.org/2000/svg"
   xmlns:sodipodi="http://sodipodi.sourceforge.net/DTD/sodipodi-0.dtd"
   xmlns:inkscape="http://www.inkscape.org/namespaces/inkscape"
   version="1.0"
   x="0px"
   y="0px"
   viewBox="0 0 100 125"
   enable-background="new 0 0 100 100"
   xml:space="preserve"
   id="svg14"
   sodipodi:docname="noun_brainstorming_402069.svg"
   inkscape:version="0.92.2 (5c3e80d, 2017-08-06)"><metadata
     id="metadata20"><rdf:RDF><cc:Work
         rdf:about=""><dc:format>image/svg+xml</dc:format><dc:type
           rdf:resource="http://purl.org/dc/dcmitype/StillImage" /></cc:Work></rdf:RDF></metadata><defs
     id="defs18" /><sodipodi:namedview
     pagecolor="#ffffff"
     bordercolor="#666666"
     borderopacity="1"
     objecttolerance="10"
     gridtolerance="10"
     guidetolerance="10"
     inkscape:pageopacity="0"
     inkscape:pageshadow="2"
     inkscape:window-width="1920"
     inkscape:window-height="1001"
     id="namedview16"
     showgrid="false"
     inkscape:zoom="1.888"
     inkscape:cx="50"
     inkscape:cy="62.5"
     inkscape:window-x="-9"
     inkscape:window-y="-9"
     inkscape:window-maximized="1"
     inkscape:current-layer="svg14" /><g
     id="g8"><g
       id="g6"><path
         d="M29.5235901,43.4677048c1.9960804,0,3.8065186-0.8024406,5.1325188-2.0986786    c2.1594009,1.2194405,4.8789597,2.1722412,7.9838409,2.7665977c0.2594414,3.8193626,3.4413605,6.8491211,7.3247032,6.8491211    c3.8570175,0,7.0236969-2.9888382,7.3206978-6.7713585c3.2821198-0.5869217,6.1541977-1.5693626,8.4121208-2.8443604    c1.3258743,1.2962379,3.1364365,2.0986786,5.1324005,2.0986786c4.0522766,0,7.3499985-3.2970009,7.3499985-7.3499985    c0-4.0528793-3.2977219-7.3500004-7.3499985-7.3500004c-0.8562012,0-1.6750793,0.1548004-2.4398422,0.4251595    c-2.7602386-2.5412407-7.5419998-4.4015999-13.323719-5.0827198l-6.0191994-6.0662403    c-0.4676399-0.4711189-1.2294006-0.4727993-1.6969223-0.0064793c-0.4711189,0.4670391-0.4734001,1.2269993-0.0070801,1.6975193    l4.0825195,4.1135998c-0.4154396-0.011879-0.8265572-0.0308399-1.2488403-0.0308399    c-7.9425354,0-14.7055168,2.1456013-18.213335,5.3751602c-0.7647839-0.270359-1.5836639-0.4251595-2.4398632-0.4251595    c-4.0522804,0-7.3500004,3.297121-7.3500004,7.3500004C22.1735897,40.1707039,25.4713097,43.4677048,29.5235901,43.4677048z     M29.5235901,31.1677055c0.2559605,0,0.5018635,0.0380402,0.7473602,0.0755997    c0.8325596,0.1276798,1.5911999,0.4596004,2.2334404,0.9486008c1.1885986,0.9049187,1.9692001,2.3201981,1.9692001,3.9258003    c0,0.7077599-0.1549225,1.3780785-0.4237213,1.9876785c-0.3272171,0.7420807-0.8401184,1.3758011-1.4678383,1.8740425    c-0.8446808,0.6706772-1.8986416,1.0882797-3.0584412,1.0882797c-2.7292805,0-4.9499989-2.2206001-4.9499989-4.9500008    C24.5735912,33.3884239,26.7943096,31.1677055,29.5235901,31.1677055z M49.964653,48.5847473    c-2.4263992,0-4.4412003-1.7583618-4.8606224-4.0657234c-0.0523224-0.2879982-0.0893784-0.581398-0.0893784-0.8842773    c0-0.5281219,0.1050987-1.0274391,0.2590561-1.5050392c0.6412811-1.9906807,2.4896431-3.4449615,4.6909447-3.4449615    c2.2196159,0,4.0805779,1.4785194,4.7064972,3.495121c0.1437607,0.4630775,0.2435036,0.94524,0.2435036,1.4548798    c0,0.3214798-0.0362625,0.6343193-0.0950623,0.9389992C54.3789482,46.8547058,52.3724289,48.5847473,49.964653,48.5847473z     M70.8298721,31.1677055c2.7292786,0,4.9499969,2.2207184,4.9499969,4.9500008    c0,2.7294006-2.2207184,4.9500008-4.9499969,4.9500008c-1.1598053,0-2.2137604-0.4176025-3.0584183-1.0882797    c-0.6277466-0.4982414-1.140625-1.1319618-1.467865-1.8740425c-0.2687988-0.6096001-0.4237213-1.2799187-0.4237213-1.9876785    c0-1.6056023,0.7806015-3.0208817,1.9692001-3.9258003c0.6423874-0.4890003,1.4008789-0.8209209,2.2334442-0.9486008    C70.3280258,31.2057457,70.5739059,31.1677055,70.8298721,31.1677055z M50.1767883,26.2177048    c0.3883209,0,0.7614021,0.0169201,1.1406021,0.0272408l-4.4793587,3.5493603    c-0.5191231,0.4113598-0.6069603,1.1666393-0.1957207,1.6857605c0.237957,0.2987995,0.5883598,0.4546795,0.9422379,0.4546795    c0.2601624,0,0.5237999-0.0849609,0.7441216-0.2595596l6.5353203-5.1789608    c5.0348396,0.593401,8.9681969,2.1044407,11.3027954,3.9449997c-1.6393204,1.349041-2.6869164,3.392519-2.6869164,5.6764812    c0,1.1951981,0.2929192,2.3211594,0.8012428,3.3196793c-1.8788414,1.0190392-4.3170013,1.8589211-7.2012024,2.3880005    c-0.8094025-3.1791611-3.6882019-5.5406418-7.1152573-5.5406418c-3.4014244,0-6.2629433,2.3264427-7.0970612,5.4694824    c-2.7104416-0.5320816-5.0037384-1.3450813-6.7951202-2.3168411c0.5081978-0.9985199,0.8011169-2.1244812,0.8011169-3.3196793    c0-2.2839622-1.0475998-4.3274403-2.6869202-5.6764812C37.2058716,28.0609055,42.8906555,26.2177048,50.1767883,26.2177048z"
         id="path2" /><path
         d="M70.8298721,46.8193054c-6.2331619,0-11.4583244,4.3477211-12.834362,10.1664009    c-2.3212547-1.4905205-5.0733604-2.3664017-8.0308571-2.3664017c-2.8043022,0-5.420784,0.7921219-7.6641846,2.143322    c-1.4560776-5.7056427-6.6239967-9.9433212-12.7768784-9.9433212c-7.2784805,0-13.1999989,5.9215202-13.1999989,13.2000008    V72.963829h2.3999996V60.0193062c0-5.9548798,4.8445187-10.7999992,10.7999992-10.7999992    c5.3719215,0,9.8270645,3.9463196,10.6510811,9.0892792c-3.1348801,2.736721-5.1279602,6.7502365-5.1279602,11.2286377v13.4262009    h1.1996384h1.2003593V69.5372238c0-3.0275955,1.0811996-5.8070374,2.8768806-7.9742393    c0.6885605-0.8309975,1.488842-1.5632401,2.3671188-2.1934776c2.0528412-1.4728813,4.5602417-2.3502007,7.2739449-2.3502007    c2.8965378,0,5.5592155,0.9980392,7.6826172,2.6560783c0.9022789,0.7045212,1.702198,1.5293999,2.3825989,2.4510002    c1.5339851,2.0776787,2.4526787,4.6359596,2.4526787,7.4108391v13.4262009h1.2003632h1.1996422V69.5372238    c0-4.2977982-1.8375626-8.1653976-4.7556038-10.8901176c0.677639-5.3077202,5.2133064-9.4277992,10.7029228-9.4277992    c5.9554749,0,10.7999954,4.8451195,10.7999954,10.7999992V72.963829h2.4000015V60.0193062    C84.0298691,52.7408257,78.1083527,46.8193054,70.8298721,46.8193054z"
         id="path4" /></g></g></svg>