<?xml version="1.0" encoding="UTF-8" standalone="no"?>
<svg
   xmlns:dc="http://purl.org/dc/elements/1.1/"
   xmlns:cc="http://creativecommons.org/ns#"
   xmlns:rdf="http://www.w3.org/1999/02/22-rdf-syntax-ns#"
   xmlns:svg="http://www.w3.org/2000/svg"
   xmlns="http://www.w3.org/2000/svg"
   xmlns:sodipodi="http://sodipodi.sourceforge.net/DTD/sodipodi-0.dtd"
   xmlns:inkscape="http://www.inkscape.org/namespaces/inkscape"
   version="1.1"
   x="0px"
   y="0px"
   viewBox="-109 191 100 125"
   style="enable-background:new -109 191 100 100;"
   xml:space="preserve"
   id="svg3819"
   sodipodi:docname="noun_User_342954.svg"
   inkscape:version="0.92.2 (5c3e80d, 2017-08-06)"><metadata
     id="metadata3825"><rdf:RDF><cc:Work
         rdf:about=""><dc:format>image/svg+xml</dc:format><dc:type
           rdf:resource="http://purl.org/dc/dcmitype/StillImage" /></cc:Work></rdf:RDF></metadata><defs
     id="defs3823" /><sodipodi:namedview
     pagecolor="#ffffff"
     bordercolor="#666666"
     borderopacity="1"
     objecttolerance="10"
     gridtolerance="10"
     guidetolerance="10"
     inkscape:pageopacity="0"
     inkscape:pageshadow="2"
     inkscape:window-width="849"
     inkscape:window-height="480"
     id="namedview3821"
     showgrid="false"
     inkscape:zoom="1.888"
     inkscape:cx="40.680462"
     inkscape:cy="66.644833"
     inkscape:window-x="0"
     inkscape:window-y="0"
     inkscape:window-maximized="0"
     inkscape:current-layer="svg3819" /><g
     id="g3813"><g
       id="g3811"><path
         d="M-37.1,248.2c0-8.6-10.7-13.8-11.1-14c-1.4-0.7-2.1-1.8-1.1-4.7c0.9-2.6,1.7-5.1,1.3-8.5c-0.6-5.3-5.4-9.5-10.9-9.5    c0,0-0.1,0-0.1,0c-5.4,0-10.3,4.3-10.9,9.5c-0.4,3.3,0.4,5.9,1.3,8.5c1,2.9,0.3,4-1.1,4.7c-0.5,0.2-11.1,5.4-11.2,14    c0,8,0,20.7,0,20.9c0,0.6,0.4,1,1,1h41.8c0.6,0,1-0.4,1-1C-37.1,268.9-37.1,256.1-37.1,248.2z M-67.9,221.2    c0.4-4.2,4.5-7.7,8.9-7.7c0,0,0,0,0,0c0,0,0,0,0,0c0,0,0,0,0,0c4.4,0,8.4,3.5,8.9,7.7c0.3,2.7-0.2,4.7-1.2,7.6    c-0.3,0.8-0.9,2.5-0.4,4.2c-2.4,2.3-4.9,3.4-7.4,3.3c-3.5-0.1-6.3-2.4-7.3-3.3c0.4-1.7-0.2-3.4-0.4-4.1    C-67.7,226-68.2,223.9-67.9,221.2z M-39.1,268h-39.8c0-3.2,0-13.2,0-19.8c0-7.3,9.9-12.1,10.1-12.2c0.6-0.3,1.1-0.7,1.5-1.1    c1.4,1.3,4.4,3.4,8.2,3.5c0.1,0,0.2,0,0.3,0c2.9,0,5.6-1.2,8.2-3.5c0.4,0.4,0.9,0.8,1.5,1.1c0.1,0,10,4.9,10,12.2    C-39.1,254.8-39.1,264.8-39.1,268z"
         id="path3807" /><path
         d="M-60,227l4,0c0,0,0,0,0,0c0.6,0,1-0.4,1-1c0-0.6-0.4-1-1-1l-3,0v-5c0-0.6-0.4-1-1-1s-1,0.4-1,1v6    C-61,226.6-60.6,227-60,227z"
         id="path3809" /></g></g></svg>