<?xml version="1.0" encoding="UTF-8" standalone="no"?>
<svg
   xmlns:dc="http://purl.org/dc/elements/1.1/"
   xmlns:cc="http://creativecommons.org/ns#"
   xmlns:rdf="http://www.w3.org/1999/02/22-rdf-syntax-ns#"
   xmlns:svg="http://www.w3.org/2000/svg"
   xmlns="http://www.w3.org/2000/svg"
   xmlns:sodipodi="http://sodipodi.sourceforge.net/DTD/sodipodi-0.dtd"
   xmlns:inkscape="http://www.inkscape.org/namespaces/inkscape"
   version="1.1"
   x="0px"
   y="0px"
   viewBox="0 0 100 125"
   enable-background="new 0 0 100 100"
   xml:space="preserve"
   id="svg22"
   sodipodi:docname="noun_Enter_77821.svg"
   inkscape:version="0.92.2 (5c3e80d, 2017-08-06)"><metadata
     id="metadata28"><rdf:RDF><cc:Work
         rdf:about=""><dc:format>image/svg+xml</dc:format><dc:type
           rdf:resource="http://purl.org/dc/dcmitype/StillImage" /></cc:Work></rdf:RDF></metadata><defs
     id="defs26" /><sodipodi:namedview
     pagecolor="#ffffff"
     bordercolor="#666666"
     borderopacity="1"
     objecttolerance="10"
     gridtolerance="10"
     guidetolerance="10"
     inkscape:pageopacity="0"
     inkscape:pageshadow="2"
     inkscape:window-width="1920"
     inkscape:window-height="1001"
     id="namedview24"
     showgrid="false"
     inkscape:zoom="1.888"
     inkscape:cx="50"
     inkscape:cy="62.5"
     inkscape:window-x="-9"
     inkscape:window-y="-9"
     inkscape:window-maximized="1"
     inkscape:current-layer="svg22" /><g
     id="g8"><g
       id="g6"><path
         d="M89.868,5.059H38.136c-2.107,0-3.816,1.708-3.816,3.815v26.705h5.678v-21.62c0-2.05,1.662-3.712,3.712-3.712h40.585    c2.05,0,3.711,1.662,3.711,3.712v71.93c0,2.05-1.661,3.712-3.711,3.712H43.709c-2.05,0-3.712-1.662-3.712-3.712V64.115h-5.678    v27.013c0,2.105,1.709,3.813,3.816,3.813h51.732c2.106,0,3.814-1.708,3.814-3.813V8.874C93.683,6.767,91.975,5.059,89.868,5.059z"
         id="path2" /><path
         d="M47.613,63.587c-1.026,1.003-1.046,2.646-0.045,3.671c1.002,1.025,2.646,1.045,3.671,0.044L64.87,53.99l3.716-3.626    l-3.628-3.715L51.442,32.809c-1.002-1.026-2.646-1.045-3.671-0.044c-1.025,1.002-1.046,2.646-0.044,3.672l10.635,10.89H8.913    c-1.434,0-2.596,1.162-2.596,2.596c0,1.433,1.162,2.596,2.596,2.596h50.035L47.613,63.587z"
         id="path4" /></g></g><g
     display="none"
     id="g16"><g
       display="inline"
       id="g14"><path
         d="M59.775,86.058c0,2.05-1.662,3.712-3.714,3.712H15.46c-2.051,0-3.714-1.662-3.714-3.712V14.096    c0-2.051,1.663-3.713,3.714-3.713h40.602c2.052,0,3.714,1.663,3.714,3.713v21.783h5.68V8.855c0-2.107-1.709-3.816-3.816-3.816    H9.884c-2.108,0-3.817,1.709-3.817,3.816v82.288c0,2.108,1.709,3.817,3.817,3.817h51.755c2.108,0,3.816-1.709,3.816-3.817V64.427    h-5.68V86.058z"
         id="path10" /><path
         d="M90.306,46.648L76.783,32.801c-1.002-1.026-2.646-1.045-3.673-0.043c-1.025,1.002-1.045,2.646-0.043,3.673l10.638,10.895    H34.236c-1.436,0-2.598,1.163-2.598,2.597c0,1.434,1.162,2.596,2.598,2.596h50.056L72.951,63.592    c-1.025,1.003-1.045,2.648-0.043,3.674c1.003,1.026,2.646,1.045,3.672,0.043l13.637-13.314l3.717-3.63L90.306,46.648z"
         id="path12" /></g></g></svg>