<?xml version="1.0" encoding="UTF-8" standalone="no"?>
<svg
   xmlns:dc="http://purl.org/dc/elements/1.1/"
   xmlns:cc="http://creativecommons.org/ns#"
   xmlns:rdf="http://www.w3.org/1999/02/22-rdf-syntax-ns#"
   xmlns:svg="http://www.w3.org/2000/svg"
   xmlns="http://www.w3.org/2000/svg"
   xmlns:sodipodi="http://sodipodi.sourceforge.net/DTD/sodipodi-0.dtd"
   xmlns:inkscape="http://www.inkscape.org/namespaces/inkscape"
   version="1.0"
   x="0px"
   y="0px"
   viewBox="0 0 100 125"
   enable-background="new 0 0 100 100"
   xml:space="preserve"
   id="svg3121"
   sodipodi:docname="noun_Prototype test_338616.svg"
   inkscape:version="0.92.2 (5c3e80d, 2017-08-06)"><metadata
     id="metadata3127"><rdf:RDF><cc:Work
         rdf:about=""><dc:format>image/svg+xml</dc:format><dc:type
           rdf:resource="http://purl.org/dc/dcmitype/StillImage" /></cc:Work></rdf:RDF></metadata><defs
     id="defs3125" /><sodipodi:namedview
     pagecolor="#ffffff"
     bordercolor="#666666"
     borderopacity="1"
     objecttolerance="10"
     gridtolerance="10"
     guidetolerance="10"
     inkscape:pageopacity="0"
     inkscape:pageshadow="2"
     inkscape:window-width="849"
     inkscape:window-height="480"
     id="namedview3123"
     showgrid="false"
     inkscape:zoom="1.888"
     inkscape:cx="50"
     inkscape:cy="62.5"
     inkscape:window-x="0"
     inkscape:window-y="0"
     inkscape:window-maximized="0"
     inkscape:current-layer="svg3121" /><g
     id="g3115"><g
       id="g3113"><path
         d="M77,27H24c-0.5527115,0-1,0.4477997-1,1v37c0,0.5522003,0.4472885,1,1,1h25v8.035202H34.8915863    c-0.5527,0-1,0.4477005-1,1c0,0.5522003,0.4473,1,1,1h30.2167969c0.5527039,0,1-0.4477997,1-1c0-0.5522995-0.4472961-1-1-1H51V66    h26c0.5526886,0,1-0.4477997,1-1V28C78,27.4477997,77.5526886,27,77,27z M76,64H25V29h51V64z"
         id="path3109" /><path
         d="M50.2753868,58.9496994c2.3661995,0,4.6562004-0.6898994,6.6211014-1.9950981    c0.4598999-0.3057022,0.5848999-0.9263,0.2793007-1.3862C56.8690872,55.107399,56.25,54.9828987,55.7890854,55.2886009    c-1.6357994,1.0868988-3.5419998,1.6610985-5.5136986,1.6610985c-5.5019989,0-9.9785004-4.4761009-9.9785004-9.9780006    c0-5.5014992,4.4765015-9.9776001,9.9785004-9.9776001c5.1678009,0,9.4286995,3.9494019,9.9273987,8.9878006h-3.1822968    c-0.360302,0-0.6924019,0.1939011-0.8701019,0.5074005c-0.1777,0.3134003-0.1729012,0.6982002,0.0126991,1.0073013    l4.0752029,6.7919998c0.1805992,0.3012009,0.5057983,0.4852982,0.857399,0.4852982s0.6767998-0.1840973,0.857399-0.4852982    l4.0752029-6.7919998c0.1856003-0.3091011,0.1904984-0.6939011,0.0127106-1.0073013    c-0.1777115-0.3134995-0.5097122-0.5074005-0.8701172-0.5074005h-2.9680977    c-0.5059967-6.1419983-5.6569977-10.9878006-11.9273987-10.9878006c-6.6044998,0-11.9785004,5.3731003-11.9785004,11.9776001    S43.670887,58.9496994,50.2753868,58.9496994z M61.0956879,51.830101l-2.3086014-3.8482018h4.6171989L61.0956879,51.830101z"
         id="path3111" /></g></g></svg>