<?xml version="1.0" encoding="UTF-8" standalone="no"?>
<svg
   xmlns:dc="http://purl.org/dc/elements/1.1/"
   xmlns:cc="http://creativecommons.org/ns#"
   xmlns:rdf="http://www.w3.org/1999/02/22-rdf-syntax-ns#"
   xmlns:svg="http://www.w3.org/2000/svg"
   xmlns="http://www.w3.org/2000/svg"
   xmlns:sodipodi="http://sodipodi.sourceforge.net/DTD/sodipodi-0.dtd"
   xmlns:inkscape="http://www.inkscape.org/namespaces/inkscape"
   version="1.0"
   x="0px"
   y="0px"
   viewBox="0 0 100 125"
   enable-background="new 0 0 100 100"
   xml:space="preserve"
   id="svg1172"
   sodipodi:docname="noun_information architect_342963.svg"
   inkscape:version="0.92.2 (5c3e80d, 2017-08-06)"><metadata
     id="metadata1178"><rdf:RDF><cc:Work
         rdf:about=""><dc:format>image/svg+xml</dc:format><dc:type
           rdf:resource="http://purl.org/dc/dcmitype/StillImage" /></cc:Work></rdf:RDF></metadata><defs
     id="defs1176" /><sodipodi:namedview
     pagecolor="#ffffff"
     bordercolor="#666666"
     borderopacity="1"
     objecttolerance="10"
     gridtolerance="10"
     guidetolerance="10"
     inkscape:pageopacity="0"
     inkscape:pageshadow="2"
     inkscape:window-width="1920"
     inkscape:window-height="1001"
     id="namedview1174"
     showgrid="false"
     inkscape:zoom="6.464"
     inkscape:cx="50"
     inkscape:cy="105.10221"
     inkscape:window-x="-9"
     inkscape:window-y="-9"
     inkscape:window-maximized="1"
     inkscape:current-layer="svg1172" /><g
     id="g1166"><g
       id="g1164"><path
         d="M71.8671875,57.1508789c-0.0424805-8.5776367-10.7211914-13.769043-11.1381836-13.9663086    c-1.3754883-0.7294922-2.0883789-1.8046875-1.0976563-4.6787109c0.8891602-2.5600586,1.6577148-5.1337891,1.2983398-8.4702148    c-0.559082-5.2504883-5.4355469-9.5024414-10.8833008-9.5024414c-0.0332031,0-0.065918,0-0.1000977,0    c-5.4477539,0-10.3242188,4.2524414-10.8833008,9.5014648c-0.359375,3.3374023,0.4091797,5.9111328,1.2978516,8.46875    c0.9912109,2.8764648,0.2783203,3.9516602-1.0595703,4.6616211c-0.4545898,0.2167969-11.1333008,5.4082031-11.1757813,13.9858398    c-0.0390625,7.9609375-0.0004883,20.7241211,0,20.8520508C28.1269531,78.5541992,28.5742188,79,29.1254883,79H70.887207    c0.5517578,0,0.9990234-0.4467773,1-0.9985352C71.887207,77.8735352,71.90625,65.1108398,71.8671875,57.1508789z     M41.0512695,30.2475586c0.4467773-4.1904297,4.515625-7.7143555,8.8964844-7.7143555    c0.0151367,0,0.0336914,0.0019531,0.0449219,0c0.0014648,0,0.003418-0.0004883,0.0073242,0    c0.015625,0.0019531,0.0297852,0,0.0449219,0c4.3803711,0,8.449707,3.5239258,8.8964844,7.715332    c0.2866211,2.6625977-0.2001953,4.7255859-1.2001953,7.6035156c-0.2646484,0.7666016-0.8520508,2.4882813-0.4038086,4.1767578    c-2.3671875,2.253418-4.8525391,3.3793945-7.4072266,3.3051758c-3.5205078-0.0947266-6.2836914-2.4077148-7.2592773-3.3413086    c0.4243164-1.6738281-0.1567383-3.3798828-0.4199219-4.1430664    C41.2514648,34.9741211,40.7646484,32.9111328,41.0512695,30.2475586z M69.8886719,77H30.1225586    c-0.0078125-3.168457-0.0297852-13.1850586,0.0029297-19.8393555c0.0366211-7.3193359,9.9375-12.1425781,10.074707-12.2094727    c0.6328125-0.3354492,1.112793-0.7241211,1.4897461-1.1391602c1.4077148,1.2553711,4.3598633,3.4106445,8.1665039,3.5205078    c0.1010742,0.0029297,0.2016602,0.0043945,0.3022461,0.0043945c2.859375,0,5.6035156-1.184082,8.1762695-3.5029297    c0.3798828,0.4135742,0.8613281,0.8007813,1.4951172,1.1367188c0.1000977,0.0473633,10.0004883,4.8535156,10.0371094,12.1899414    C69.8999023,63.8139648,69.8920898,73.8291016,69.8886719,77z"
         id="path1156" /><path
         d="M48.996582,36l4,0.0146484c0.0009766,0,0.0024414,0,0.003418,0c0.5507813,0,0.9980469-0.4453125,1-0.9960938    c0.0019531-0.5527344-0.4438477-1.0019531-0.996582-1.0039063L50,34.003418V29c0-0.5522461-0.4477539-1-1-1s-1,0.4477539-1,1v6    C48,35.5507813,48.4453125,35.9980469,48.996582,36z"
         id="path1158" /><path
         d="M59.5429688,57.6567383l-9-5.8208008c-0.3300781-0.2138672-0.7558594-0.2138672-1.0859375,0l-9,5.8208008    C40.171875,57.8413086,40,58.1572266,40,58.496582V71c0,0.5522461,0.4477539,1,1,1h18c0.5522461,0,1-0.4477539,1-1V58.496582    C60,58.1572266,59.828125,57.8413086,59.5429688,57.6567383z M58,70h-7v-7c0-0.5522461-0.4477539-1-1-1h-3v2h2v6h-7V59.0405273    l8-5.1738281l8,5.1738281V70z"
         id="path1160" /><circle
         cx="50"
         cy="60"
         r="1"
         id="circle1162" /></g></g></svg>